<svg width="40" height="40" viewBox="0 0 40 40" fill="none" xmlns="http://www.w3.org/2000/svg">
<circle cx="20" cy="20" r="17.7143" fill="#CFF3E3" stroke="white" stroke-width="3.42857"/>
<path fill-rule="evenodd" clip-rule="evenodd" d="M20.3526 26.7029C19.0848 26.6053 18.1126 26.2396 17.436 25.6057C16.7595 24.9718 16.3724 24.088 16.2749 22.9543H17.8292C17.9877 24.4172 18.8288 25.2278 20.3526 25.3863V20.6503L20.1698 20.6137C19.5968 20.5162 19.0909 20.379 18.652 20.2023C18.2132 20.0255 17.8414 19.7939 17.5366 19.5074C17.2319 19.221 17.0002 18.8644 16.8418 18.4377C16.6833 18.011 16.604 17.5051 16.604 16.92C16.604 16.4446 16.6924 16.0088 16.8692 15.6126C17.046 15.2164 17.2959 14.869 17.6189 14.5703C17.942 14.2716 18.3351 14.0309 18.7983 13.848C19.2616 13.6651 19.7797 13.5432 20.3526 13.4823V11.9463H21.5595V13.464C22.23 13.525 22.7938 13.6651 23.2509 13.8846C23.708 14.104 24.0799 14.3691 24.3663 14.68C24.6528 14.9909 24.8692 15.3291 25.0155 15.6949C25.1618 16.0606 25.2654 16.4202 25.3263 16.7737L23.8269 17.048C23.7538 16.7432 23.6593 16.4629 23.5435 16.2069C23.4277 15.9509 23.2844 15.7253 23.1138 15.5303C22.9431 15.3352 22.7298 15.1737 22.4738 15.0457C22.2178 14.9177 21.913 14.8293 21.5595 14.7806V19.3337L21.8155 19.3703C22.998 19.5531 23.8939 19.931 24.5035 20.504C25.113 21.077 25.4178 21.9364 25.4178 23.0823C25.4178 23.5455 25.3385 23.9874 25.18 24.408C25.0216 24.8286 24.7808 25.2034 24.4578 25.5326C24.1347 25.8617 23.7324 26.1299 23.2509 26.3371C22.7694 26.5444 22.2056 26.6724 21.5595 26.7211V28.44H20.3526V26.7029ZM21.5595 25.4046C22.3397 25.3192 22.9065 25.0663 23.26 24.6457C23.6136 24.2251 23.7903 23.704 23.7903 23.0823C23.7903 22.8507 23.7629 22.619 23.708 22.3874C23.6532 22.1558 23.5496 21.9394 23.3972 21.7383C23.2448 21.5371 23.0345 21.3634 22.7663 21.2171C22.4981 21.0709 22.1507 20.9611 21.724 20.888L21.5595 20.8697V25.4046ZM18.6429 15.5211C18.966 15.1249 19.5359 14.8781 20.3526 14.7806V19.1143C19.9138 19.029 19.5511 18.9162 19.2646 18.776C18.9781 18.6358 18.7526 18.4712 18.588 18.2823C18.4235 18.0933 18.3107 17.88 18.2498 17.6423C18.1888 17.4046 18.1583 17.1394 18.1583 16.8469C18.1583 16.3592 18.3199 15.9173 18.6429 15.5211Z" fill="#10C176"/>
</svg>
