<svg width="313" height="144" viewBox="0 0 313 144" fill="none" xmlns="http://www.w3.org/2000/svg">
<rect x="33" width="17" height="119" fill="#F6F8FA"/>
<rect x="129" width="17" height="119" fill="#F6F8FA"/>
<rect x="225" width="17" height="119" fill="#F6F8FA"/>
<rect x="81" width="17" height="119" fill="#F6F8FA"/>
<rect x="177" width="17" height="119" fill="#F6F8FA"/>
<rect x="272" width="17" height="119" fill="#F6F8FA"/>
<rect x="57" width="17" height="119" fill="#F6F8FA"/>
<rect x="153" width="17" height="119" fill="#F6F8FA"/>
<rect x="248" width="17" height="119" fill="#F6F8FA"/>
<rect x="105" width="17" height="119" fill="#F6F8FA"/>
<rect x="201" width="17" height="119" fill="#F6F8FA"/>
<rect x="296" width="17" height="119" fill="#F6F8FA"/>
<path opacity="0.2" fill-rule="evenodd" clip-rule="evenodd" d="M306 120H43L43 65.3156L65.7092 43.36L90.4731 60.7815L112.778 49.129L138.53 115.999L161.304 39.2441L186.316 75.9146L208.969 53.7739L232.569 67.0131L257.582 37.5245L281.321 45.3237L306 19" fill="url(#paint0_linear)"/>
<path d="M42 67.094L65.7567 45.28L90.4845 61.6195L114.382 49.5255L137.907 116L161.549 40.6945L186.009 77.5655L208.254 54.8219L232.825 68.4171L257.407 38.7685L280.681 45.5661L306 21" stroke="#6271D2" stroke-width="1.41075" stroke-linecap="round"/>
<path d="M40.7384 134.08V141H39.8284V135.84L37.5284 141H36.8884L34.5784 135.83V141H33.6684V134.08H34.6484L37.2084 139.8L39.7684 134.08H40.7384ZM41.9417 138.24C41.9417 137.68 42.0551 137.19 42.2817 136.77C42.5084 136.343 42.8184 136.013 43.2117 135.78C43.6117 135.547 44.0551 135.43 44.5417 135.43C45.0217 135.43 45.4384 135.533 45.7917 135.74C46.1451 135.947 46.4084 136.207 46.5817 136.52V135.52H47.5017V141H46.5817V139.98C46.4017 140.3 46.1317 140.567 45.7717 140.78C45.4184 140.987 45.0051 141.09 44.5317 141.09C44.0451 141.09 43.6051 140.97 43.2117 140.73C42.8184 140.49 42.5084 140.153 42.2817 139.72C42.0551 139.287 41.9417 138.793 41.9417 138.24ZM46.5817 138.25C46.5817 137.837 46.4984 137.477 46.3317 137.17C46.1651 136.863 45.9384 136.63 45.6517 136.47C45.3717 136.303 45.0617 136.22 44.7217 136.22C44.3817 136.22 44.0717 136.3 43.7917 136.46C43.5117 136.62 43.2884 136.853 43.1217 137.16C42.9551 137.467 42.8717 137.827 42.8717 138.24C42.8717 138.66 42.9551 139.027 43.1217 139.34C43.2884 139.647 43.5117 139.883 43.7917 140.05C44.0717 140.21 44.3817 140.29 44.7217 140.29C45.0617 140.29 45.3717 140.21 45.6517 140.05C45.9384 139.883 46.1651 139.647 46.3317 139.34C46.4984 139.027 46.5817 138.663 46.5817 138.25ZM49.9495 136.41C50.1095 136.097 50.3362 135.853 50.6295 135.68C50.9295 135.507 51.2929 135.42 51.7195 135.42V136.36H51.4795C50.4595 136.36 49.9495 136.913 49.9495 138.02V141H49.0395V135.52H49.9495V136.41Z" fill="#79828B"/>
<path d="M7.28758 116.09C7.28758 116.41 7.20758 116.717 7.04758 117.01C6.88758 117.297 6.65091 117.537 6.33758 117.73C6.03091 117.923 5.66091 118.033 5.22758 118.06V118.87H4.68758V118.06C4.08091 118.007 3.58758 117.813 3.20758 117.48C2.82758 117.14 2.63424 116.71 2.62758 116.19H3.59758C3.62424 116.47 3.72758 116.713 3.90758 116.92C4.09424 117.127 4.35424 117.257 4.68758 117.31V114.81C4.24091 114.697 3.88091 114.58 3.60758 114.46C3.33424 114.34 3.10091 114.153 2.90758 113.9C2.71424 113.647 2.61758 113.307 2.61758 112.88C2.61758 112.34 2.80424 111.893 3.17758 111.54C3.55758 111.187 4.06091 110.99 4.68758 110.95V110.12H5.22758V110.95C5.79424 110.997 6.25091 111.18 6.59758 111.5C6.94425 111.813 7.14425 112.223 7.19758 112.73H6.22758C6.19424 112.497 6.09091 112.287 5.91758 112.1C5.74424 111.907 5.51424 111.78 5.22758 111.72V114.16C5.66758 114.273 6.02425 114.39 6.29758 114.51C6.57758 114.623 6.81091 114.807 6.99758 115.06C7.19091 115.313 7.28758 115.657 7.28758 116.09ZM3.54758 112.83C3.54758 113.157 3.64424 113.407 3.83758 113.58C4.03091 113.753 4.31424 113.897 4.68758 114.01V111.7C4.34091 111.733 4.06424 111.847 3.85758 112.04C3.65091 112.227 3.54758 112.49 3.54758 112.83ZM5.22758 117.32C5.58758 117.28 5.86758 117.15 6.06758 116.93C6.27425 116.71 6.37758 116.447 6.37758 116.14C6.37758 115.813 6.27758 115.563 6.07758 115.39C5.87758 115.21 5.59424 115.067 5.22758 114.96V117.32ZM8.61828 111.6V110.77H10.4983V118H9.57828V111.6H8.61828ZM12.0614 114.31C12.0614 113.163 12.2481 112.27 12.6214 111.63C12.9947 110.983 13.6481 110.66 14.5814 110.66C15.5081 110.66 16.1581 110.983 16.5314 111.63C16.9047 112.27 17.0914 113.163 17.0914 114.31C17.0914 115.477 16.9047 116.383 16.5314 117.03C16.1581 117.677 15.5081 118 14.5814 118C13.6481 118 12.9947 117.677 12.6214 117.03C12.2481 116.383 12.0614 115.477 12.0614 114.31ZM16.1914 114.31C16.1914 113.73 16.1514 113.24 16.0714 112.84C15.9981 112.433 15.8414 112.107 15.6014 111.86C15.3681 111.613 15.0281 111.49 14.5814 111.49C14.1281 111.49 13.7814 111.613 13.5414 111.86C13.3081 112.107 13.1514 112.433 13.0714 112.84C12.9981 113.24 12.9614 113.73 12.9614 114.31C12.9614 114.91 12.9981 115.413 13.0714 115.82C13.1514 116.227 13.3081 116.553 13.5414 116.8C13.7814 117.047 14.1281 117.17 14.5814 117.17C15.0281 117.17 15.3681 117.047 15.6014 116.8C15.8414 116.553 15.9981 116.227 16.0714 115.82C16.1514 115.413 16.1914 114.91 16.1914 114.31ZM18.3407 114.31C18.3407 113.163 18.5274 112.27 18.9007 111.63C19.274 110.983 19.9274 110.66 20.8607 110.66C21.7874 110.66 22.4374 110.983 22.8107 111.63C23.184 112.27 23.3707 113.163 23.3707 114.31C23.3707 115.477 23.184 116.383 22.8107 117.03C22.4374 117.677 21.7874 118 20.8607 118C19.9274 118 19.274 117.677 18.9007 117.03C18.5274 116.383 18.3407 115.477 18.3407 114.31ZM22.4707 114.31C22.4707 113.73 22.4307 113.24 22.3507 112.84C22.2774 112.433 22.1207 112.107 21.8807 111.86C21.6474 111.613 21.3074 111.49 20.8607 111.49C20.4074 111.49 20.0607 111.613 19.8207 111.86C19.5874 112.107 19.4307 112.433 19.3507 112.84C19.2774 113.24 19.2407 113.73 19.2407 114.31C19.2407 114.91 19.2774 115.413 19.3507 115.82C19.4307 116.227 19.5874 116.553 19.8207 116.8C20.0607 117.047 20.4074 117.17 20.8607 117.17C21.3074 117.17 21.6474 117.047 21.8807 116.8C22.1207 116.553 22.2774 116.227 22.3507 115.82C22.4307 115.413 22.4707 114.91 22.4707 114.31Z" fill="#79828B"/>
<path d="M7.28758 86.09C7.28758 86.41 7.20758 86.7167 7.04758 87.01C6.88758 87.2967 6.65091 87.5367 6.33758 87.73C6.03091 87.9233 5.66091 88.0333 5.22758 88.06V88.87H4.68758V88.06C4.08091 88.0067 3.58758 87.8133 3.20758 87.48C2.82758 87.14 2.63424 86.71 2.62758 86.19H3.59758C3.62424 86.47 3.72758 86.7133 3.90758 86.92C4.09424 87.1267 4.35424 87.2567 4.68758 87.31V84.81C4.24091 84.6967 3.88091 84.58 3.60758 84.46C3.33424 84.34 3.10091 84.1533 2.90758 83.9C2.71424 83.6467 2.61758 83.3067 2.61758 82.88C2.61758 82.34 2.80424 81.8933 3.17758 81.54C3.55758 81.1867 4.06091 80.99 4.68758 80.95V80.12H5.22758V80.95C5.79424 80.9967 6.25091 81.18 6.59758 81.5C6.94425 81.8133 7.14425 82.2233 7.19758 82.73H6.22758C6.19424 82.4967 6.09091 82.2867 5.91758 82.1C5.74424 81.9067 5.51424 81.78 5.22758 81.72V84.16C5.66758 84.2733 6.02425 84.39 6.29758 84.51C6.57758 84.6233 6.81091 84.8067 6.99758 85.06C7.19091 85.3133 7.28758 85.6567 7.28758 86.09ZM3.54758 82.83C3.54758 83.1567 3.64424 83.4067 3.83758 83.58C4.03091 83.7533 4.31424 83.8967 4.68758 84.01V81.7C4.34091 81.7333 4.06424 81.8467 3.85758 82.04C3.65091 82.2267 3.54758 82.49 3.54758 82.83ZM5.22758 87.32C5.58758 87.28 5.86758 87.15 6.06758 86.93C6.27425 86.71 6.37758 86.4467 6.37758 86.14C6.37758 85.8133 6.27758 85.5633 6.07758 85.39C5.87758 85.21 5.59424 85.0667 5.22758 84.96V87.32ZM8.61828 81.6V80.77H10.4983V88H9.57828V81.6H8.61828ZM16.6714 81.56H13.1614V83.84C13.3147 83.6267 13.5414 83.4533 13.8414 83.32C14.1414 83.18 14.4647 83.11 14.8114 83.11C15.3647 83.11 15.8147 83.2267 16.1614 83.46C16.5081 83.6867 16.7547 83.9833 16.9014 84.35C17.0547 84.71 17.1314 85.0933 17.1314 85.5C17.1314 85.98 17.0414 86.41 16.8614 86.79C16.6814 87.17 16.4047 87.47 16.0314 87.69C15.6647 87.91 15.2081 88.02 14.6614 88.02C13.9614 88.02 13.3947 87.84 12.9614 87.48C12.5281 87.12 12.2647 86.64 12.1714 86.04H13.0614C13.1481 86.42 13.3314 86.7167 13.6114 86.93C13.8914 87.1433 14.2447 87.25 14.6714 87.25C15.1981 87.25 15.5947 87.0933 15.8614 86.78C16.1281 86.46 16.2614 86.04 16.2614 85.52C16.2614 85 16.1281 84.6 15.8614 84.32C15.5947 84.0333 15.2014 83.89 14.6814 83.89C14.3281 83.89 14.0181 83.9767 13.7514 84.15C13.4914 84.3167 13.3014 84.5467 13.1814 84.84H12.3214V80.76H16.6714V81.56ZM18.3407 84.31C18.3407 83.1633 18.5274 82.27 18.9007 81.63C19.274 80.9833 19.9274 80.66 20.8607 80.66C21.7874 80.66 22.4374 80.9833 22.8107 81.63C23.184 82.27 23.3707 83.1633 23.3707 84.31C23.3707 85.4767 23.184 86.3833 22.8107 87.03C22.4374 87.6767 21.7874 88 20.8607 88C19.9274 88 19.274 87.6767 18.9007 87.03C18.5274 86.3833 18.3407 85.4767 18.3407 84.31ZM22.4707 84.31C22.4707 83.73 22.4307 83.24 22.3507 82.84C22.2774 82.4333 22.1207 82.1067 21.8807 81.86C21.6474 81.6133 21.3074 81.49 20.8607 81.49C20.4074 81.49 20.0607 81.6133 19.8207 81.86C19.5874 82.1067 19.4307 82.4333 19.3507 82.84C19.2774 83.24 19.2407 83.73 19.2407 84.31C19.2407 84.91 19.2774 85.4133 19.3507 85.82C19.4307 86.2267 19.5874 86.5533 19.8207 86.8C20.0607 87.0467 20.4074 87.17 20.8607 87.17C21.3074 87.17 21.6474 87.0467 21.8807 86.8C22.1207 86.5533 22.2774 86.2267 22.3507 85.82C22.4307 85.4133 22.4707 84.91 22.4707 84.31Z" fill="#79828B"/>
<path d="M4.73875 57.09C4.73875 57.41 4.65875 57.7167 4.49875 58.01C4.33875 58.2967 4.10208 58.5367 3.78875 58.73C3.48208 58.9233 3.11208 59.0333 2.67875 59.06V59.87H2.13875V59.06C1.53208 59.0067 1.03875 58.8133 0.65875 58.48C0.27875 58.14 0.0854167 57.71 0.07875 57.19H1.04875C1.07542 57.47 1.17875 57.7133 1.35875 57.92C1.54542 58.1267 1.80542 58.2567 2.13875 58.31V55.81C1.69208 55.6967 1.33208 55.58 1.05875 55.46C0.785417 55.34 0.552083 55.1533 0.35875 54.9C0.165417 54.6467 0.06875 54.3067 0.06875 53.88C0.06875 53.34 0.255417 52.8933 0.62875 52.54C1.00875 52.1867 1.51208 51.99 2.13875 51.95V51.12H2.67875V51.95C3.24542 51.9967 3.70208 52.18 4.04875 52.5C4.39542 52.8133 4.59542 53.2233 4.64875 53.73H3.67875C3.64542 53.4967 3.54208 53.2867 3.36875 53.1C3.19542 52.9067 2.96542 52.78 2.67875 52.72V55.16C3.11875 55.2733 3.47542 55.39 3.74875 55.51C4.02875 55.6233 4.26208 55.8067 4.44875 56.06C4.64208 56.3133 4.73875 56.6567 4.73875 57.09ZM0.99875 53.83C0.99875 54.1567 1.09542 54.4067 1.28875 54.58C1.48208 54.7533 1.76542 54.8967 2.13875 55.01V52.7C1.79208 52.7333 1.51542 52.8467 1.30875 53.04C1.10208 53.2267 0.99875 53.49 0.99875 53.83ZM2.67875 58.32C3.03875 58.28 3.31875 58.15 3.51875 57.93C3.72542 57.71 3.82875 57.4467 3.82875 57.14C3.82875 56.8133 3.72875 56.5633 3.52875 56.39C3.32875 56.21 3.04542 56.0667 2.67875 55.96V58.32ZM6.19945 58.27C7.04612 57.59 7.70945 57.0333 8.18945 56.6C8.66945 56.16 9.07279 55.7033 9.39945 55.23C9.73279 54.75 9.89945 54.28 9.89945 53.82C9.89945 53.3867 9.79279 53.0467 9.57945 52.8C9.37279 52.5467 9.03612 52.42 8.56945 52.42C8.11612 52.42 7.76279 52.5633 7.50945 52.85C7.26279 53.13 7.12945 53.5067 7.10945 53.98H6.22945C6.25612 53.2333 6.48279 52.6567 6.90945 52.25C7.33612 51.8433 7.88612 51.64 8.55945 51.64C9.24612 51.64 9.78945 51.83 10.1895 52.21C10.5961 52.59 10.7995 53.1133 10.7995 53.78C10.7995 54.3333 10.6328 54.8733 10.2995 55.4C9.97279 55.92 9.59945 56.38 9.17945 56.78C8.75945 57.1733 8.22279 57.6333 7.56945 58.16H11.0095V58.92H6.19945V58.27ZM12.0614 55.31C12.0614 54.1633 12.2481 53.27 12.6214 52.63C12.9947 51.9833 13.6481 51.66 14.5814 51.66C15.5081 51.66 16.1581 51.9833 16.5314 52.63C16.9047 53.27 17.0914 54.1633 17.0914 55.31C17.0914 56.4767 16.9047 57.3833 16.5314 58.03C16.1581 58.6767 15.5081 59 14.5814 59C13.6481 59 12.9947 58.6767 12.6214 58.03C12.2481 57.3833 12.0614 56.4767 12.0614 55.31ZM16.1914 55.31C16.1914 54.73 16.1514 54.24 16.0714 53.84C15.9981 53.4333 15.8414 53.1067 15.6014 52.86C15.3681 52.6133 15.0281 52.49 14.5814 52.49C14.1281 52.49 13.7814 52.6133 13.5414 52.86C13.3081 53.1067 13.1514 53.4333 13.0714 53.84C12.9981 54.24 12.9614 54.73 12.9614 55.31C12.9614 55.91 12.9981 56.4133 13.0714 56.82C13.1514 57.2267 13.3081 57.5533 13.5414 57.8C13.7814 58.0467 14.1281 58.17 14.5814 58.17C15.0281 58.17 15.3681 58.0467 15.6014 57.8C15.8414 57.5533 15.9981 57.2267 16.0714 56.82C16.1514 56.4133 16.1914 55.91 16.1914 55.31ZM18.3407 55.31C18.3407 54.1633 18.5274 53.27 18.9007 52.63C19.274 51.9833 19.9274 51.66 20.8607 51.66C21.7874 51.66 22.4374 51.9833 22.8107 52.63C23.184 53.27 23.3707 54.1633 23.3707 55.31C23.3707 56.4767 23.184 57.3833 22.8107 58.03C22.4374 58.6767 21.7874 59 20.8607 59C19.9274 59 19.274 58.6767 18.9007 58.03C18.5274 57.3833 18.3407 56.4767 18.3407 55.31ZM22.4707 55.31C22.4707 54.73 22.4307 54.24 22.3507 53.84C22.2774 53.4333 22.1207 53.1067 21.8807 52.86C21.6474 52.6133 21.3074 52.49 20.8607 52.49C20.4074 52.49 20.0607 52.6133 19.8207 52.86C19.5874 53.1067 19.4307 53.4333 19.3507 53.84C19.2774 54.24 19.2407 54.73 19.2407 55.31C19.2407 55.91 19.2774 56.4133 19.3507 56.82C19.4307 57.2267 19.5874 57.5533 19.8207 57.8C20.0607 58.0467 20.4074 58.17 20.8607 58.17C21.3074 58.17 21.6474 58.0467 21.8807 57.8C22.1207 57.5533 22.2774 57.2267 22.3507 56.82C22.4307 56.4133 22.4707 55.91 22.4707 55.31Z" fill="#79828B"/>
<path d="M4.73875 28.09C4.73875 28.41 4.65875 28.7167 4.49875 29.01C4.33875 29.2967 4.10208 29.5367 3.78875 29.73C3.48208 29.9233 3.11208 30.0333 2.67875 30.06V30.87H2.13875V30.06C1.53208 30.0067 1.03875 29.8133 0.65875 29.48C0.27875 29.14 0.0854167 28.71 0.07875 28.19H1.04875C1.07542 28.47 1.17875 28.7133 1.35875 28.92C1.54542 29.1267 1.80542 29.2567 2.13875 29.31V26.81C1.69208 26.6967 1.33208 26.58 1.05875 26.46C0.785417 26.34 0.552083 26.1533 0.35875 25.9C0.165417 25.6467 0.06875 25.3067 0.06875 24.88C0.06875 24.34 0.255417 23.8933 0.62875 23.54C1.00875 23.1867 1.51208 22.99 2.13875 22.95V22.12H2.67875V22.95C3.24542 22.9967 3.70208 23.18 4.04875 23.5C4.39542 23.8133 4.59542 24.2233 4.64875 24.73H3.67875C3.64542 24.4967 3.54208 24.2867 3.36875 24.1C3.19542 23.9067 2.96542 23.78 2.67875 23.72V26.16C3.11875 26.2733 3.47542 26.39 3.74875 26.51C4.02875 26.6233 4.26208 26.8067 4.44875 27.06C4.64208 27.3133 4.73875 27.6567 4.73875 28.09ZM0.99875 24.83C0.99875 25.1567 1.09542 25.4067 1.28875 25.58C1.48208 25.7533 1.76542 25.8967 2.13875 26.01V23.7C1.79208 23.7333 1.51542 23.8467 1.30875 24.04C1.10208 24.2267 0.99875 24.49 0.99875 24.83ZM2.67875 29.32C3.03875 29.28 3.31875 29.15 3.51875 28.93C3.72542 28.71 3.82875 28.4467 3.82875 28.14C3.82875 27.8133 3.72875 27.5633 3.52875 27.39C3.32875 27.21 3.04542 27.0667 2.67875 26.96V29.32ZM6.19945 29.27C7.04612 28.59 7.70945 28.0333 8.18945 27.6C8.66945 27.16 9.07279 26.7033 9.39945 26.23C9.73279 25.75 9.89945 25.28 9.89945 24.82C9.89945 24.3867 9.79279 24.0467 9.57945 23.8C9.37279 23.5467 9.03612 23.42 8.56945 23.42C8.11612 23.42 7.76279 23.5633 7.50945 23.85C7.26279 24.13 7.12945 24.5067 7.10945 24.98H6.22945C6.25612 24.2333 6.48279 23.6567 6.90945 23.25C7.33612 22.8433 7.88612 22.64 8.55945 22.64C9.24612 22.64 9.78945 22.83 10.1895 23.21C10.5961 23.59 10.7995 24.1133 10.7995 24.78C10.7995 25.3333 10.6328 25.8733 10.2995 26.4C9.97279 26.92 9.59945 27.38 9.17945 27.78C8.75945 28.1733 8.22279 28.6333 7.56945 29.16H11.0095V29.92H6.19945V29.27ZM16.6714 23.56H13.1614V25.84C13.3147 25.6267 13.5414 25.4533 13.8414 25.32C14.1414 25.18 14.4647 25.11 14.8114 25.11C15.3647 25.11 15.8147 25.2267 16.1614 25.46C16.5081 25.6867 16.7547 25.9833 16.9014 26.35C17.0547 26.71 17.1314 27.0933 17.1314 27.5C17.1314 27.98 17.0414 28.41 16.8614 28.79C16.6814 29.17 16.4047 29.47 16.0314 29.69C15.6647 29.91 15.2081 30.02 14.6614 30.02C13.9614 30.02 13.3947 29.84 12.9614 29.48C12.5281 29.12 12.2647 28.64 12.1714 28.04H13.0614C13.1481 28.42 13.3314 28.7167 13.6114 28.93C13.8914 29.1433 14.2447 29.25 14.6714 29.25C15.1981 29.25 15.5947 29.0933 15.8614 28.78C16.1281 28.46 16.2614 28.04 16.2614 27.52C16.2614 27 16.1281 26.6 15.8614 26.32C15.5947 26.0333 15.2014 25.89 14.6814 25.89C14.3281 25.89 14.0181 25.9767 13.7514 26.15C13.4914 26.3167 13.3014 26.5467 13.1814 26.84H12.3214V22.76H16.6714V23.56ZM18.3407 26.31C18.3407 25.1633 18.5274 24.27 18.9007 23.63C19.274 22.9833 19.9274 22.66 20.8607 22.66C21.7874 22.66 22.4374 22.9833 22.8107 23.63C23.184 24.27 23.3707 25.1633 23.3707 26.31C23.3707 27.4767 23.184 28.3833 22.8107 29.03C22.4374 29.6767 21.7874 30 20.8607 30C19.9274 30 19.274 29.6767 18.9007 29.03C18.5274 28.3833 18.3407 27.4767 18.3407 26.31ZM22.4707 26.31C22.4707 25.73 22.4307 25.24 22.3507 24.84C22.2774 24.4333 22.1207 24.1067 21.8807 23.86C21.6474 23.6133 21.3074 23.49 20.8607 23.49C20.4074 23.49 20.0607 23.6133 19.8207 23.86C19.5874 24.1067 19.4307 24.4333 19.3507 24.84C19.2774 25.24 19.2407 25.73 19.2407 26.31C19.2407 26.91 19.2774 27.4133 19.3507 27.82C19.4307 28.2267 19.5874 28.5533 19.8207 28.8C20.0607 29.0467 20.4074 29.17 20.8607 29.17C21.3074 29.17 21.6474 29.0467 21.8807 28.8C22.1207 28.5533 22.2774 28.2267 22.3507 27.82C22.4307 27.4133 22.4707 26.91 22.4707 26.31Z" fill="#79828B"/>
<path d="M86.8341 134.08V141H85.9241V135.84L83.6241 141H82.9841L80.6741 135.83V141H79.7641V134.08H80.7441L83.3041 139.8L85.8641 134.08H86.8341ZM88.0374 138.24C88.0374 137.68 88.1508 137.19 88.3774 136.77C88.6041 136.343 88.9141 136.013 89.3074 135.78C89.7074 135.547 90.1508 135.43 90.6374 135.43C91.1174 135.43 91.5341 135.533 91.8874 135.74C92.2408 135.947 92.5041 136.207 92.6774 136.52V135.52H93.5974V141H92.6774V139.98C92.4974 140.3 92.2274 140.567 91.8674 140.78C91.5141 140.987 91.1008 141.09 90.6274 141.09C90.1408 141.09 89.7008 140.97 89.3074 140.73C88.9141 140.49 88.6041 140.153 88.3774 139.72C88.1508 139.287 88.0374 138.793 88.0374 138.24ZM92.6774 138.25C92.6774 137.837 92.5941 137.477 92.4274 137.17C92.2608 136.863 92.0341 136.63 91.7474 136.47C91.4674 136.303 91.1574 136.22 90.8174 136.22C90.4774 136.22 90.1674 136.3 89.8874 136.46C89.6074 136.62 89.3841 136.853 89.2174 137.16C89.0508 137.467 88.9674 137.827 88.9674 138.24C88.9674 138.66 89.0508 139.027 89.2174 139.34C89.3841 139.647 89.6074 139.883 89.8874 140.05C90.1674 140.21 90.4774 140.29 90.8174 140.29C91.1574 140.29 91.4674 140.21 91.7474 140.05C92.0341 139.883 92.2608 139.647 92.4274 139.34C92.5941 139.027 92.6774 138.663 92.6774 138.25ZM99.8552 135.52L96.5552 143.58H95.6152L96.6952 140.94L94.4852 135.52H95.4952L97.2152 139.96L98.9152 135.52H99.8552Z" fill="#79828B"/>
<path d="M133.12 134.03V139.18C133.12 139.753 132.943 140.213 132.59 140.56C132.237 140.9 131.77 141.07 131.19 141.07C130.603 141.07 130.133 140.897 129.78 140.55C129.427 140.197 129.25 139.717 129.25 139.11H130.16C130.167 139.45 130.253 139.727 130.42 139.94C130.593 140.153 130.85 140.26 131.19 140.26C131.53 140.26 131.783 140.16 131.95 139.96C132.117 139.753 132.2 139.493 132.2 139.18V134.03H133.12ZM139.773 135.52V141H138.863V140.19C138.689 140.47 138.446 140.69 138.133 140.85C137.826 141.003 137.486 141.08 137.113 141.08C136.686 141.08 136.303 140.993 135.963 140.82C135.623 140.64 135.353 140.373 135.153 140.02C134.959 139.667 134.863 139.237 134.863 138.73V135.52H135.763V138.61C135.763 139.15 135.899 139.567 136.173 139.86C136.446 140.147 136.819 140.29 137.293 140.29C137.779 140.29 138.163 140.14 138.443 139.84C138.723 139.54 138.863 139.103 138.863 138.53V135.52H139.773ZM142.219 133.6V141H141.309V133.6H142.219Z" fill="#79828B"/>
<path d="M178.152 141.07C177.692 141.07 177.279 140.99 176.912 140.83C176.552 140.663 176.269 140.437 176.062 140.15C175.855 139.857 175.749 139.52 175.742 139.14H176.712C176.745 139.467 176.879 139.743 177.112 139.97C177.352 140.19 177.699 140.3 178.152 140.3C178.585 140.3 178.925 140.193 179.172 139.98C179.425 139.76 179.552 139.48 179.552 139.14C179.552 138.873 179.479 138.657 179.332 138.49C179.185 138.323 179.002 138.197 178.782 138.11C178.562 138.023 178.265 137.93 177.892 137.83C177.432 137.71 177.062 137.59 176.782 137.47C176.509 137.35 176.272 137.163 176.072 136.91C175.879 136.65 175.782 136.303 175.782 135.87C175.782 135.49 175.879 135.153 176.072 134.86C176.265 134.567 176.535 134.34 176.882 134.18C177.235 134.02 177.639 133.94 178.092 133.94C178.745 133.94 179.279 134.103 179.692 134.43C180.112 134.757 180.349 135.19 180.402 135.73H179.402C179.369 135.463 179.229 135.23 178.982 135.03C178.735 134.823 178.409 134.72 178.002 134.72C177.622 134.72 177.312 134.82 177.072 135.02C176.832 135.213 176.712 135.487 176.712 135.84C176.712 136.093 176.782 136.3 176.922 136.46C177.069 136.62 177.245 136.743 177.452 136.83C177.665 136.91 177.962 137.003 178.342 137.11C178.802 137.237 179.172 137.363 179.452 137.49C179.732 137.61 179.972 137.8 180.172 138.06C180.372 138.313 180.472 138.66 180.472 139.1C180.472 139.44 180.382 139.76 180.202 140.06C180.022 140.36 179.755 140.603 179.402 140.79C179.049 140.977 178.632 141.07 178.152 141.07ZM186.811 138.05C186.811 138.223 186.801 138.407 186.781 138.6H182.401C182.434 139.14 182.618 139.563 182.951 139.87C183.291 140.17 183.701 140.32 184.181 140.32C184.574 140.32 184.901 140.23 185.161 140.05C185.428 139.863 185.614 139.617 185.721 139.31H186.701C186.554 139.837 186.261 140.267 185.821 140.6C185.381 140.927 184.834 141.09 184.181 141.09C183.661 141.09 183.194 140.973 182.781 140.74C182.374 140.507 182.054 140.177 181.821 139.75C181.588 139.317 181.471 138.817 181.471 138.25C181.471 137.683 181.584 137.187 181.811 136.76C182.038 136.333 182.354 136.007 182.761 135.78C183.174 135.547 183.648 135.43 184.181 135.43C184.701 135.43 185.161 135.543 185.561 135.77C185.961 135.997 186.268 136.31 186.481 136.71C186.701 137.103 186.811 137.55 186.811 138.05ZM185.871 137.86C185.871 137.513 185.794 137.217 185.641 136.97C185.488 136.717 185.278 136.527 185.011 136.4C184.751 136.267 184.461 136.2 184.141 136.2C183.681 136.2 183.288 136.347 182.961 136.64C182.641 136.933 182.458 137.34 182.411 137.86H185.871ZM188.922 136.53C189.102 136.217 189.369 135.957 189.722 135.75C190.082 135.537 190.499 135.43 190.972 135.43C191.459 135.43 191.899 135.547 192.292 135.78C192.692 136.013 193.006 136.343 193.232 136.77C193.459 137.19 193.572 137.68 193.572 138.24C193.572 138.793 193.459 139.287 193.232 139.72C193.006 140.153 192.692 140.49 192.292 140.73C191.899 140.97 191.459 141.09 190.972 141.09C190.506 141.09 190.092 140.987 189.732 140.78C189.379 140.567 189.109 140.303 188.922 139.99V143.6H188.012V135.52H188.922V136.53ZM192.642 138.24C192.642 137.827 192.559 137.467 192.392 137.16C192.226 136.853 191.999 136.62 191.712 136.46C191.432 136.3 191.122 136.22 190.782 136.22C190.449 136.22 190.139 136.303 189.852 136.47C189.572 136.63 189.346 136.867 189.172 137.18C189.006 137.487 188.922 137.843 188.922 138.25C188.922 138.663 189.006 139.027 189.172 139.34C189.346 139.647 189.572 139.883 189.852 140.05C190.139 140.21 190.449 140.29 190.782 140.29C191.122 140.29 191.432 140.21 191.712 140.05C191.999 139.883 192.226 139.647 192.392 139.34C192.559 139.027 192.642 138.66 192.642 138.24Z" fill="#79828B"/>
<path d="M275.823 134.03V139.18C275.823 139.753 275.646 140.213 275.293 140.56C274.94 140.9 274.473 141.07 273.893 141.07C273.306 141.07 272.836 140.897 272.483 140.55C272.13 140.197 271.953 139.717 271.953 139.11H272.863C272.87 139.45 272.956 139.727 273.123 139.94C273.296 140.153 273.553 140.26 273.893 140.26C274.233 140.26 274.486 140.16 274.653 139.96C274.82 139.753 274.903 139.493 274.903 139.18V134.03H275.823ZM277.276 138.24C277.276 137.68 277.389 137.19 277.616 136.77C277.842 136.343 278.152 136.013 278.546 135.78C278.946 135.547 279.389 135.43 279.876 135.43C280.356 135.43 280.772 135.533 281.126 135.74C281.479 135.947 281.742 136.207 281.916 136.52V135.52H282.836V141H281.916V139.98C281.736 140.3 281.466 140.567 281.106 140.78C280.752 140.987 280.339 141.09 279.866 141.09C279.379 141.09 278.939 140.97 278.546 140.73C278.152 140.49 277.842 140.153 277.616 139.72C277.389 139.287 277.276 138.793 277.276 138.24ZM281.916 138.25C281.916 137.837 281.832 137.477 281.666 137.17C281.499 136.863 281.272 136.63 280.986 136.47C280.706 136.303 280.396 136.22 280.056 136.22C279.716 136.22 279.406 136.3 279.126 136.46C278.846 136.62 278.622 136.853 278.456 137.16C278.289 137.467 278.206 137.827 278.206 138.24C278.206 138.66 278.289 139.027 278.456 139.34C278.622 139.647 278.846 139.883 279.126 140.05C279.406 140.21 279.716 140.29 280.056 140.29C280.396 140.29 280.706 140.21 280.986 140.05C281.272 139.883 281.499 139.647 281.666 139.34C281.832 139.027 281.916 138.663 281.916 138.25ZM287.044 135.42C287.71 135.42 288.25 135.623 288.664 136.03C289.077 136.43 289.284 137.01 289.284 137.77V141H288.384V137.9C288.384 137.353 288.247 136.937 287.974 136.65C287.7 136.357 287.327 136.21 286.854 136.21C286.374 136.21 285.99 136.36 285.704 136.66C285.424 136.96 285.284 137.397 285.284 137.97V141H284.374V135.52H285.284V136.3C285.464 136.02 285.707 135.803 286.014 135.65C286.327 135.497 286.67 135.42 287.044 135.42Z" fill="#79828B"/>
<path d="M231.217 141H230.307L226.647 135.45V141H225.737V134.02H226.647L230.307 139.56V134.02H231.217V141ZM235.158 141.09C234.645 141.09 234.178 140.973 233.758 140.74C233.345 140.507 233.018 140.177 232.778 139.75C232.545 139.317 232.428 138.817 232.428 138.25C232.428 137.69 232.548 137.197 232.788 136.77C233.035 136.337 233.368 136.007 233.788 135.78C234.208 135.547 234.678 135.43 235.198 135.43C235.718 135.43 236.188 135.547 236.608 135.78C237.028 136.007 237.358 136.333 237.598 136.76C237.845 137.187 237.968 137.683 237.968 138.25C237.968 138.817 237.841 139.317 237.588 139.75C237.341 140.177 237.005 140.507 236.578 140.74C236.151 140.973 235.678 141.09 235.158 141.09ZM235.158 140.29C235.485 140.29 235.791 140.213 236.078 140.06C236.365 139.907 236.595 139.677 236.768 139.37C236.948 139.063 237.038 138.69 237.038 138.25C237.038 137.81 236.951 137.437 236.778 137.13C236.605 136.823 236.378 136.597 236.098 136.45C235.818 136.297 235.515 136.22 235.188 136.22C234.855 136.22 234.548 136.297 234.268 136.45C233.995 136.597 233.775 136.823 233.608 137.13C233.441 137.437 233.358 137.81 233.358 138.25C233.358 138.697 233.438 139.073 233.598 139.38C233.765 139.687 233.985 139.917 234.258 140.07C234.531 140.217 234.831 140.29 235.158 140.29ZM241.205 140.16L242.905 135.52H243.875L241.725 141H240.665L238.515 135.52H239.495L241.205 140.16Z" fill="#79828B"/>
<defs>
<linearGradient id="paint0_linear" x1="306" y1="120" x2="306" y2="19" gradientUnits="userSpaceOnUse">
<stop stop-color="white" stop-opacity="0.01"/>
<stop offset="1" stop-color="#6270D1"/>
</linearGradient>
</defs>
</svg>
