<svg width="483" height="183" viewBox="0 0 483 183" fill="none" xmlns="http://www.w3.org/2000/svg">
<g clip-path="url(#clip0)">
<rect x="41" width="30" height="160" fill="#F6F8FA"/>
<rect x="191" width="30" height="160" fill="#F6F8FA"/>
<rect x="341" width="30" height="160" fill="#F6F8FA"/>
<rect x="116" width="30" height="160" fill="#F6F8FA"/>
<rect x="266" width="30" height="160" fill="#F6F8FA"/>
<rect x="415" width="30" height="160" fill="#F6F8FA"/>
<rect x="79" width="30" height="160" fill="#F6F8FA"/>
<rect x="228" width="30" height="160" fill="#F6F8FA"/>
<rect x="378" width="30" height="160" fill="#F6F8FA"/>
<rect x="154" width="30" height="160" fill="#F6F8FA"/>
<rect x="303" width="30" height="160" fill="#F6F8FA"/>
<rect x="453" width="30" height="160" fill="#F6F8FA"/>
<path opacity="0.2" fill-rule="evenodd" clip-rule="evenodd" d="M469 159H55L55 105.361L94.0273 54.1586L132.284 77.8425L167.755 54.8584L205.065 155.686L242.995 49.1135L279.479 107.984L319.55 68.7014L355.348 83.7277L391.448 54.8584L430.416 68.7014L469 40" fill="url(#paint0_linear)"/>
<path d="M56 106.444L94.4514 53.6899L132.626 79.0784L168.81 54.9147L205.678 156L243.677 48.731L280.402 109.382L320.267 68.919L355.989 85.0266L392.428 54.9147L431.385 68.919L469 41" stroke="#6271D2" stroke-width="1.65" stroke-linecap="round"/>
<circle cx="243.5" cy="47.5" r="4.5" fill="white" stroke="#4360DF" stroke-width="1.65"/>
<path d="M55.1181 171.388V179H54.1171V173.324L51.5871 179H50.8831L48.3421 173.313V179H47.3411V171.388H48.4191L51.2351 177.68L54.0511 171.388H55.1181ZM56.4418 175.964C56.4418 175.348 56.5664 174.809 56.8158 174.347C57.0651 173.878 57.4061 173.515 57.8388 173.258C58.2788 173.001 58.7664 172.873 59.3018 172.873C59.8298 172.873 60.2881 172.987 60.6768 173.214C61.0654 173.441 61.3551 173.727 61.5458 174.072V172.972H62.5578V179H61.5458V177.878C61.3478 178.23 61.0508 178.523 60.6548 178.758C60.2661 178.985 59.8114 179.099 59.2908 179.099C58.7554 179.099 58.2714 178.967 57.8388 178.703C57.4061 178.439 57.0651 178.069 56.8158 177.592C56.5664 177.115 56.4418 176.573 56.4418 175.964ZM61.5458 175.975C61.5458 175.52 61.4541 175.124 61.2708 174.787C61.0874 174.45 60.8381 174.193 60.5228 174.017C60.2148 173.834 59.8738 173.742 59.4998 173.742C59.1258 173.742 58.7848 173.83 58.4768 174.006C58.1688 174.182 57.9231 174.439 57.7398 174.776C57.5564 175.113 57.4648 175.509 57.4648 175.964C57.4648 176.426 57.5564 176.829 57.7398 177.174C57.9231 177.511 58.1688 177.772 58.4768 177.955C58.7848 178.131 59.1258 178.219 59.4998 178.219C59.8738 178.219 60.2148 178.131 60.5228 177.955C60.8381 177.772 61.0874 177.511 61.2708 177.174C61.4541 176.829 61.5458 176.43 61.5458 175.975ZM65.2503 173.951C65.4263 173.606 65.6757 173.339 65.9983 173.148C66.3283 172.957 66.728 172.862 67.1973 172.862V173.896H66.9333C65.8113 173.896 65.2503 174.505 65.2503 175.722V179H64.2493V172.972H65.2503V173.951Z" fill="#79828B"/>
<path d="M8.61634 140.899C8.61634 141.251 8.52834 141.588 8.35234 141.911C8.17634 142.226 7.916 142.49 7.57134 142.703C7.234 142.916 6.827 143.037 6.35034 143.066V143.957H5.75634V143.066C5.089 143.007 4.54634 142.795 4.12834 142.428C3.71034 142.054 3.49767 141.581 3.49034 141.009H4.55734C4.58667 141.317 4.70034 141.585 4.89834 141.812C5.10367 142.039 5.38967 142.182 5.75634 142.241V139.491C5.265 139.366 4.869 139.238 4.56834 139.106C4.26767 138.974 4.011 138.769 3.79834 138.49C3.58567 138.211 3.47934 137.837 3.47934 137.368C3.47934 136.774 3.68467 136.283 4.09534 135.894C4.51334 135.505 5.067 135.289 5.75634 135.245V134.332H6.35034V135.245C6.97367 135.296 7.476 135.498 7.85734 135.85C8.23867 136.195 8.45867 136.646 8.51734 137.203H7.45034C7.41367 136.946 7.3 136.715 7.10934 136.51C6.91867 136.297 6.66567 136.158 6.35034 136.092V138.776C6.83434 138.901 7.22667 139.029 7.52734 139.161C7.83534 139.286 8.092 139.487 8.29734 139.766C8.51 140.045 8.61634 140.422 8.61634 140.899ZM4.50234 137.313C4.50234 137.672 4.60867 137.947 4.82134 138.138C5.034 138.329 5.34567 138.486 5.75634 138.611V136.07C5.375 136.107 5.07067 136.231 4.84334 136.444C4.616 136.649 4.50234 136.939 4.50234 137.313ZM6.35034 142.252C6.74634 142.208 7.05434 142.065 7.27434 141.823C7.50167 141.581 7.61534 141.291 7.61534 140.954C7.61534 140.595 7.50534 140.32 7.28534 140.129C7.06534 139.931 6.75367 139.773 6.35034 139.656V142.252ZM10.0801 135.96V135.047H12.1481V143H11.1361V135.96H10.0801ZM13.8675 138.941C13.8675 137.68 14.0729 136.697 14.4835 135.993C14.8942 135.282 15.6129 134.926 16.6395 134.926C17.6589 134.926 18.3739 135.282 18.7845 135.993C19.1952 136.697 19.4005 137.68 19.4005 138.941C19.4005 140.224 19.1952 141.222 18.7845 141.933C18.3739 142.644 17.6589 143 16.6395 143C15.6129 143 14.8942 142.644 14.4835 141.933C14.0729 141.222 13.8675 140.224 13.8675 138.941ZM18.4105 138.941C18.4105 138.303 18.3665 137.764 18.2785 137.324C18.1979 136.877 18.0255 136.517 17.7615 136.246C17.5049 135.975 17.1309 135.839 16.6395 135.839C16.1409 135.839 15.7595 135.975 15.4955 136.246C15.2389 136.517 15.0665 136.877 14.9785 137.324C14.8979 137.764 14.8575 138.303 14.8575 138.941C14.8575 139.601 14.8979 140.155 14.9785 140.602C15.0665 141.049 15.2389 141.409 15.4955 141.68C15.7595 141.951 16.1409 142.087 16.6395 142.087C17.1309 142.087 17.5049 141.951 17.7615 141.68C18.0255 141.409 18.1979 141.049 18.2785 140.602C18.3665 140.155 18.4105 139.601 18.4105 138.941ZM20.7748 138.941C20.7748 137.68 20.9801 136.697 21.3908 135.993C21.8014 135.282 22.5201 134.926 23.5468 134.926C24.5661 134.926 25.2811 135.282 25.6918 135.993C26.1024 136.697 26.3078 137.68 26.3078 138.941C26.3078 140.224 26.1024 141.222 25.6918 141.933C25.2811 142.644 24.5661 143 23.5468 143C22.5201 143 21.8014 142.644 21.3908 141.933C20.9801 141.222 20.7748 140.224 20.7748 138.941ZM25.3178 138.941C25.3178 138.303 25.2738 137.764 25.1858 137.324C25.1051 136.877 24.9328 136.517 24.6688 136.246C24.4121 135.975 24.0381 135.839 23.5468 135.839C23.0481 135.839 22.6668 135.975 22.4028 136.246C22.1461 136.517 21.9738 136.877 21.8858 137.324C21.8051 137.764 21.7648 138.303 21.7648 138.941C21.7648 139.601 21.8051 140.155 21.8858 140.602C21.9738 141.049 22.1461 141.409 22.4028 141.68C22.6668 141.951 23.0481 142.087 23.5468 142.087C24.0381 142.087 24.4121 141.951 24.6688 141.68C24.9328 141.409 25.1051 141.049 25.1858 140.602C25.2738 140.155 25.3178 139.601 25.3178 138.941Z" fill="#79828B"/>
<path d="M8.61634 101.899C8.61634 102.251 8.52834 102.588 8.35234 102.911C8.17634 103.226 7.916 103.49 7.57134 103.703C7.234 103.916 6.827 104.037 6.35034 104.066V104.957H5.75634V104.066C5.089 104.007 4.54634 103.795 4.12834 103.428C3.71034 103.054 3.49767 102.581 3.49034 102.009H4.55734C4.58667 102.317 4.70034 102.585 4.89834 102.812C5.10367 103.039 5.38967 103.182 5.75634 103.241V100.491C5.265 100.366 4.869 100.238 4.56834 100.106C4.26767 99.974 4.011 99.7687 3.79834 99.49C3.58567 99.2113 3.47934 98.8373 3.47934 98.368C3.47934 97.774 3.68467 97.2827 4.09534 96.894C4.51334 96.5053 5.067 96.289 5.75634 96.245V95.332H6.35034V96.245C6.97367 96.2963 7.476 96.498 7.85734 96.85C8.23867 97.1947 8.45867 97.6457 8.51734 98.203H7.45034C7.41367 97.9463 7.3 97.7153 7.10934 97.51C6.91867 97.2973 6.66567 97.158 6.35034 97.092V99.776C6.83434 99.9007 7.22667 100.029 7.52734 100.161C7.83534 100.286 8.092 100.487 8.29734 100.766C8.51 101.045 8.61634 101.422 8.61634 101.899ZM4.50234 98.313C4.50234 98.6723 4.60867 98.9473 4.82134 99.138C5.034 99.3287 5.34567 99.4863 5.75634 99.611V97.07C5.375 97.1067 5.07067 97.2313 4.84334 97.444C4.616 97.6493 4.50234 97.939 4.50234 98.313ZM6.35034 103.252C6.74634 103.208 7.05434 103.065 7.27434 102.823C7.50167 102.581 7.61534 102.291 7.61534 101.954C7.61534 101.595 7.50534 101.32 7.28534 101.129C7.06534 100.931 6.75367 100.773 6.35034 100.656V103.252ZM10.0801 96.96V96.047H12.1481V104H11.1361V96.96H10.0801ZM18.9385 96.916H15.0775V99.424C15.2462 99.1893 15.4955 98.9987 15.8255 98.852C16.1555 98.698 16.5112 98.621 16.8925 98.621C17.5012 98.621 17.9962 98.7493 18.3775 99.006C18.7589 99.2553 19.0302 99.5817 19.1915 99.985C19.3602 100.381 19.4445 100.803 19.4445 101.25C19.4445 101.778 19.3455 102.251 19.1475 102.669C18.9495 103.087 18.6452 103.417 18.2345 103.659C17.8312 103.901 17.3289 104.022 16.7275 104.022C15.9575 104.022 15.3342 103.824 14.8575 103.428C14.3809 103.032 14.0912 102.504 13.9885 101.844H14.9675C15.0629 102.262 15.2645 102.588 15.5725 102.823C15.8805 103.058 16.2692 103.175 16.7385 103.175C17.3179 103.175 17.7542 103.003 18.0475 102.658C18.3409 102.306 18.4875 101.844 18.4875 101.272C18.4875 100.7 18.3409 100.26 18.0475 99.952C17.7542 99.6367 17.3215 99.479 16.7495 99.479C16.3609 99.479 16.0199 99.5743 15.7265 99.765C15.4405 99.9483 15.2315 100.201 15.0995 100.524H14.1535V96.036H18.9385V96.916ZM20.7748 99.941C20.7748 98.6797 20.9801 97.697 21.3908 96.993C21.8014 96.2817 22.5201 95.926 23.5468 95.926C24.5661 95.926 25.2811 96.2817 25.6918 96.993C26.1024 97.697 26.3078 98.6797 26.3078 99.941C26.3078 101.224 26.1024 102.222 25.6918 102.933C25.2811 103.644 24.5661 104 23.5468 104C22.5201 104 21.8014 103.644 21.3908 102.933C20.9801 102.222 20.7748 101.224 20.7748 99.941ZM25.3178 99.941C25.3178 99.303 25.2738 98.764 25.1858 98.324C25.1051 97.8767 24.9328 97.5173 24.6688 97.246C24.4121 96.9747 24.0381 96.839 23.5468 96.839C23.0481 96.839 22.6668 96.9747 22.4028 97.246C22.1461 97.5173 21.9738 97.8767 21.8858 98.324C21.8051 98.764 21.7648 99.303 21.7648 99.941C21.7648 100.601 21.8051 101.155 21.8858 101.602C21.9738 102.049 22.1461 102.409 22.4028 102.68C22.6668 102.951 23.0481 103.087 23.5468 103.087C24.0381 103.087 24.4121 102.951 24.6688 102.68C24.9328 102.409 25.1051 102.049 25.1858 101.602C25.2738 101.155 25.3178 100.601 25.3178 99.941Z" fill="#79828B"/>
<path d="M5.81263 63.899C5.81263 64.251 5.72463 64.5883 5.54863 64.911C5.37263 65.2263 5.11229 65.4903 4.76763 65.703C4.43029 65.9157 4.02329 66.0367 3.54663 66.066V66.957H2.95263V66.066C2.28529 66.0073 1.74263 65.7947 1.32463 65.428C0.906625 65.054 0.693958 64.581 0.686625 64.009H1.75363C1.78296 64.317 1.89663 64.5847 2.09463 64.812C2.29996 65.0393 2.58596 65.1823 2.95263 65.241V62.491C2.46129 62.3663 2.06529 62.238 1.76463 62.106C1.46396 61.974 1.20729 61.7687 0.994625 61.49C0.781958 61.2113 0.675625 60.8373 0.675625 60.368C0.675625 59.774 0.880958 59.2827 1.29163 58.894C1.70963 58.5053 2.26329 58.289 2.95263 58.245V57.332H3.54663V58.245C4.16996 58.2963 4.67229 58.498 5.05363 58.85C5.43496 59.1947 5.65496 59.6457 5.71363 60.203H4.64663C4.60996 59.9463 4.49629 59.7153 4.30563 59.51C4.11496 59.2973 3.86196 59.158 3.54663 59.092V61.776C4.03063 61.9007 4.42296 62.029 4.72363 62.161C5.03163 62.2857 5.28829 62.4873 5.49363 62.766C5.70629 63.0447 5.81263 63.4223 5.81263 63.899ZM1.69863 60.313C1.69863 60.6723 1.80496 60.9473 2.01763 61.138C2.23029 61.3287 2.54196 61.4863 2.95263 61.611V59.07C2.57129 59.1067 2.26696 59.2313 2.03963 59.444C1.81229 59.6493 1.69863 59.939 1.69863 60.313ZM3.54663 65.252C3.94263 65.208 4.25063 65.065 4.47063 64.823C4.69796 64.581 4.81163 64.2913 4.81163 63.954C4.81163 63.5947 4.70163 63.3197 4.48163 63.129C4.26163 62.931 3.94996 62.7733 3.54663 62.656V65.252ZM7.4194 65.197C8.35073 64.449 9.0804 63.8367 9.6084 63.36C10.1364 62.876 10.5801 62.3737 10.9394 61.853C11.3061 61.325 11.4894 60.808 11.4894 60.302C11.4894 59.8253 11.3721 59.4513 11.1374 59.18C10.9101 58.9013 10.5397 58.762 10.0264 58.762C9.52773 58.762 9.13907 58.9197 8.8604 59.235C8.58907 59.543 8.4424 59.9573 8.4204 60.478H7.4524C7.48173 59.6567 7.73107 59.0223 8.2004 58.575C8.66973 58.1277 9.27473 57.904 10.0154 57.904C10.7707 57.904 11.3684 58.113 11.8084 58.531C12.2557 58.949 12.4794 59.5247 12.4794 60.258C12.4794 60.8667 12.2961 61.4607 11.9294 62.04C11.5701 62.612 11.1594 63.118 10.6974 63.558C10.2354 63.9907 9.64507 64.4967 8.9264 65.076H12.7104V65.912H7.4194V65.197ZM13.8675 61.941C13.8675 60.6797 14.0729 59.697 14.4835 58.993C14.8942 58.2817 15.6129 57.926 16.6395 57.926C17.6589 57.926 18.3739 58.2817 18.7845 58.993C19.1952 59.697 19.4005 60.6797 19.4005 61.941C19.4005 63.2243 19.1952 64.2217 18.7845 64.933C18.3739 65.6443 17.6589 66 16.6395 66C15.6129 66 14.8942 65.6443 14.4835 64.933C14.0729 64.2217 13.8675 63.2243 13.8675 61.941ZM18.4105 61.941C18.4105 61.303 18.3665 60.764 18.2785 60.324C18.1979 59.8767 18.0255 59.5173 17.7615 59.246C17.5049 58.9747 17.1309 58.839 16.6395 58.839C16.1409 58.839 15.7595 58.9747 15.4955 59.246C15.2389 59.5173 15.0665 59.8767 14.9785 60.324C14.8979 60.764 14.8575 61.303 14.8575 61.941C14.8575 62.601 14.8979 63.1547 14.9785 63.602C15.0665 64.0493 15.2389 64.4087 15.4955 64.68C15.7595 64.9513 16.1409 65.087 16.6395 65.087C17.1309 65.087 17.5049 64.9513 17.7615 64.68C18.0255 64.4087 18.1979 64.0493 18.2785 63.602C18.3665 63.1547 18.4105 62.601 18.4105 61.941ZM20.7748 61.941C20.7748 60.6797 20.9801 59.697 21.3908 58.993C21.8014 58.2817 22.5201 57.926 23.5468 57.926C24.5661 57.926 25.2811 58.2817 25.6918 58.993C26.1024 59.697 26.3078 60.6797 26.3078 61.941C26.3078 63.2243 26.1024 64.2217 25.6918 64.933C25.2811 65.6443 24.5661 66 23.5468 66C22.5201 66 21.8014 65.6443 21.3908 64.933C20.9801 64.2217 20.7748 63.2243 20.7748 61.941ZM25.3178 61.941C25.3178 61.303 25.2738 60.764 25.1858 60.324C25.1051 59.8767 24.9328 59.5173 24.6688 59.246C24.4121 58.9747 24.0381 58.839 23.5468 58.839C23.0481 58.839 22.6668 58.9747 22.4028 59.246C22.1461 59.5173 21.9738 59.8767 21.8858 60.324C21.8051 60.764 21.7648 61.303 21.7648 61.941C21.7648 62.601 21.8051 63.1547 21.8858 63.602C21.9738 64.0493 22.1461 64.4087 22.4028 64.68C22.6668 64.9513 23.0481 65.087 23.5468 65.087C24.0381 65.087 24.4121 64.9513 24.6688 64.68C24.9328 64.4087 25.1051 64.0493 25.1858 63.602C25.2738 63.1547 25.3178 62.601 25.3178 61.941Z" fill="#79828B"/>
<path d="M5.81263 24.899C5.81263 25.251 5.72463 25.5883 5.54863 25.911C5.37263 26.2263 5.11229 26.4903 4.76763 26.703C4.43029 26.9157 4.02329 27.0367 3.54663 27.066V27.957H2.95263V27.066C2.28529 27.0073 1.74263 26.7947 1.32463 26.428C0.906625 26.054 0.693958 25.581 0.686625 25.009H1.75363C1.78296 25.317 1.89663 25.5847 2.09463 25.812C2.29996 26.0393 2.58596 26.1823 2.95263 26.241V23.491C2.46129 23.3663 2.06529 23.238 1.76463 23.106C1.46396 22.974 1.20729 22.7687 0.994625 22.49C0.781958 22.2113 0.675625 21.8373 0.675625 21.368C0.675625 20.774 0.880958 20.2827 1.29163 19.894C1.70963 19.5053 2.26329 19.289 2.95263 19.245V18.332H3.54663V19.245C4.16996 19.2963 4.67229 19.498 5.05363 19.85C5.43496 20.1947 5.65496 20.6457 5.71363 21.203H4.64663C4.60996 20.9463 4.49629 20.7153 4.30563 20.51C4.11496 20.2973 3.86196 20.158 3.54663 20.092V22.776C4.03063 22.9007 4.42296 23.029 4.72363 23.161C5.03163 23.2857 5.28829 23.4873 5.49363 23.766C5.70629 24.0447 5.81263 24.4223 5.81263 24.899ZM1.69863 21.313C1.69863 21.6723 1.80496 21.9473 2.01763 22.138C2.23029 22.3287 2.54196 22.4863 2.95263 22.611V20.07C2.57129 20.1067 2.26696 20.2313 2.03963 20.444C1.81229 20.6493 1.69863 20.939 1.69863 21.313ZM3.54663 26.252C3.94263 26.208 4.25063 26.065 4.47063 25.823C4.69796 25.581 4.81163 25.2913 4.81163 24.954C4.81163 24.5947 4.70163 24.3197 4.48163 24.129C4.26163 23.931 3.94996 23.7733 3.54663 23.656V26.252ZM7.4194 26.197C8.35073 25.449 9.0804 24.8367 9.6084 24.36C10.1364 23.876 10.5801 23.3737 10.9394 22.853C11.3061 22.325 11.4894 21.808 11.4894 21.302C11.4894 20.8253 11.3721 20.4513 11.1374 20.18C10.9101 19.9013 10.5397 19.762 10.0264 19.762C9.52773 19.762 9.13907 19.9197 8.8604 20.235C8.58907 20.543 8.4424 20.9573 8.4204 21.478H7.4524C7.48173 20.6567 7.73107 20.0223 8.2004 19.575C8.66973 19.1277 9.27473 18.904 10.0154 18.904C10.7707 18.904 11.3684 19.113 11.8084 19.531C12.2557 19.949 12.4794 20.5247 12.4794 21.258C12.4794 21.8667 12.2961 22.4607 11.9294 23.04C11.5701 23.612 11.1594 24.118 10.6974 24.558C10.2354 24.9907 9.64507 25.4967 8.9264 26.076H12.7104V26.912H7.4194V26.197ZM18.9385 19.916H15.0775V22.424C15.2462 22.1893 15.4955 21.9987 15.8255 21.852C16.1555 21.698 16.5112 21.621 16.8925 21.621C17.5012 21.621 17.9962 21.7493 18.3775 22.006C18.7589 22.2553 19.0302 22.5817 19.1915 22.985C19.3602 23.381 19.4445 23.8027 19.4445 24.25C19.4445 24.778 19.3455 25.251 19.1475 25.669C18.9495 26.087 18.6452 26.417 18.2345 26.659C17.8312 26.901 17.3289 27.022 16.7275 27.022C15.9575 27.022 15.3342 26.824 14.8575 26.428C14.3809 26.032 14.0912 25.504 13.9885 24.844H14.9675C15.0629 25.262 15.2645 25.5883 15.5725 25.823C15.8805 26.0577 16.2692 26.175 16.7385 26.175C17.3179 26.175 17.7542 26.0027 18.0475 25.658C18.3409 25.306 18.4875 24.844 18.4875 24.272C18.4875 23.7 18.3409 23.26 18.0475 22.952C17.7542 22.6367 17.3215 22.479 16.7495 22.479C16.3609 22.479 16.0199 22.5743 15.7265 22.765C15.4405 22.9483 15.2315 23.2013 15.0995 23.524H14.1535V19.036H18.9385V19.916ZM20.7748 22.941C20.7748 21.6797 20.9801 20.697 21.3908 19.993C21.8014 19.2817 22.5201 18.926 23.5468 18.926C24.5661 18.926 25.2811 19.2817 25.6918 19.993C26.1024 20.697 26.3078 21.6797 26.3078 22.941C26.3078 24.2243 26.1024 25.2217 25.6918 25.933C25.2811 26.6443 24.5661 27 23.5468 27C22.5201 27 21.8014 26.6443 21.3908 25.933C20.9801 25.2217 20.7748 24.2243 20.7748 22.941ZM25.3178 22.941C25.3178 22.303 25.2738 21.764 25.1858 21.324C25.1051 20.8767 24.9328 20.5173 24.6688 20.246C24.4121 19.9747 24.0381 19.839 23.5468 19.839C23.0481 19.839 22.6668 19.9747 22.4028 20.246C22.1461 20.5173 21.9738 20.8767 21.8858 21.324C21.8051 21.764 21.7648 22.303 21.7648 22.941C21.7648 23.601 21.8051 24.1547 21.8858 24.602C21.9738 25.0493 22.1461 25.4087 22.4028 25.68C22.6668 25.9513 23.0481 26.087 23.5468 26.087C24.0381 26.087 24.4121 25.9513 24.6688 25.68C24.9328 25.4087 25.1051 25.0493 25.1858 24.602C25.2738 24.1547 25.3178 23.601 25.3178 22.941Z" fill="#79828B"/>
<path d="M128.571 171.388V179H127.57V173.324L125.04 179H124.336L121.795 173.313V179H120.794V171.388H121.872L124.688 177.68L127.504 171.388H128.571ZM129.894 175.964C129.894 175.348 130.019 174.809 130.268 174.347C130.518 173.878 130.859 173.515 131.291 173.258C131.731 173.001 132.219 172.873 132.754 172.873C133.282 172.873 133.741 172.987 134.129 173.214C134.518 173.441 134.808 173.727 134.998 174.072V172.972H136.01V179H134.998V177.878C134.8 178.23 134.503 178.523 134.107 178.758C133.719 178.985 133.264 179.099 132.743 179.099C132.208 179.099 131.724 178.967 131.291 178.703C130.859 178.439 130.518 178.069 130.268 177.592C130.019 177.115 129.894 176.573 129.894 175.964ZM134.998 175.975C134.998 175.52 134.907 175.124 134.723 174.787C134.54 174.45 134.291 174.193 133.975 174.017C133.667 173.834 133.326 173.742 132.952 173.742C132.578 173.742 132.237 173.83 131.929 174.006C131.621 174.182 131.376 174.439 131.192 174.776C131.009 175.113 130.917 175.509 130.917 175.964C130.917 176.426 131.009 176.829 131.192 177.174C131.376 177.511 131.621 177.772 131.929 177.955C132.237 178.131 132.578 178.219 132.952 178.219C133.326 178.219 133.667 178.131 133.975 177.955C134.291 177.772 134.54 177.511 134.723 177.174C134.907 176.829 134.998 176.43 134.998 175.975ZM142.894 172.972L139.264 181.838H138.23L139.418 178.934L136.987 172.972H138.098L139.99 177.856L141.86 172.972H142.894Z" fill="#79828B"/>
<path d="M202.42 171.333V176.998C202.42 177.629 202.226 178.135 201.837 178.516C201.448 178.89 200.935 179.077 200.297 179.077C199.652 179.077 199.135 178.886 198.746 178.505C198.357 178.116 198.163 177.588 198.163 176.921H199.164C199.171 177.295 199.267 177.599 199.45 177.834C199.641 178.069 199.923 178.186 200.297 178.186C200.671 178.186 200.95 178.076 201.133 177.856C201.316 177.629 201.408 177.343 201.408 176.998V171.333H202.42ZM209.738 172.972V179H208.737V178.109C208.546 178.417 208.279 178.659 207.934 178.835C207.597 179.004 207.223 179.088 206.812 179.088C206.343 179.088 205.921 178.993 205.547 178.802C205.173 178.604 204.876 178.311 204.656 177.922C204.443 177.533 204.337 177.06 204.337 176.503V172.972H205.327V176.371C205.327 176.965 205.477 177.423 205.778 177.746C206.079 178.061 206.489 178.219 207.01 178.219C207.545 178.219 207.967 178.054 208.275 177.724C208.583 177.394 208.737 176.914 208.737 176.283V172.972H209.738ZM212.429 170.86V179H211.428V170.86H212.429Z" fill="#79828B"/>
<path d="M272.923 179.077C272.417 179.077 271.962 178.989 271.559 178.813C271.163 178.63 270.851 178.38 270.624 178.065C270.396 177.742 270.279 177.372 270.272 176.954H271.339C271.375 177.313 271.522 177.618 271.779 177.867C272.043 178.109 272.424 178.23 272.923 178.23C273.399 178.23 273.773 178.113 274.045 177.878C274.323 177.636 274.463 177.328 274.463 176.954C274.463 176.661 274.382 176.422 274.221 176.239C274.059 176.056 273.858 175.916 273.616 175.821C273.374 175.726 273.047 175.623 272.637 175.513C272.131 175.381 271.724 175.249 271.416 175.117C271.115 174.985 270.855 174.78 270.635 174.501C270.422 174.215 270.316 173.834 270.316 173.357C270.316 172.939 270.422 172.569 270.635 172.246C270.847 171.923 271.144 171.674 271.526 171.498C271.914 171.322 272.358 171.234 272.857 171.234C273.575 171.234 274.162 171.414 274.617 171.773C275.079 172.132 275.339 172.609 275.398 173.203H274.298C274.261 172.91 274.107 172.653 273.836 172.433C273.564 172.206 273.205 172.092 272.758 172.092C272.34 172.092 271.999 172.202 271.735 172.422C271.471 172.635 271.339 172.935 271.339 173.324C271.339 173.603 271.416 173.83 271.57 174.006C271.731 174.182 271.925 174.318 272.153 174.413C272.387 174.501 272.714 174.604 273.132 174.721C273.638 174.86 274.045 175 274.353 175.139C274.661 175.271 274.925 175.48 275.145 175.766C275.365 176.045 275.475 176.426 275.475 176.91C275.475 177.284 275.376 177.636 275.178 177.966C274.98 178.296 274.686 178.564 274.298 178.769C273.909 178.974 273.451 179.077 272.923 179.077ZM282.448 175.755C282.448 175.946 282.437 176.147 282.415 176.36H277.597C277.633 176.954 277.835 177.42 278.202 177.757C278.576 178.087 279.027 178.252 279.555 178.252C279.987 178.252 280.347 178.153 280.633 177.955C280.926 177.75 281.131 177.478 281.249 177.141H282.327C282.165 177.72 281.843 178.193 281.359 178.56C280.875 178.919 280.273 179.099 279.555 179.099C278.983 179.099 278.469 178.971 278.015 178.714C277.567 178.457 277.215 178.094 276.959 177.625C276.702 177.148 276.574 176.598 276.574 175.975C276.574 175.352 276.698 174.805 276.948 174.336C277.197 173.867 277.545 173.507 277.993 173.258C278.447 173.001 278.968 172.873 279.555 172.873C280.127 172.873 280.633 172.998 281.073 173.247C281.513 173.496 281.85 173.841 282.085 174.281C282.327 174.714 282.448 175.205 282.448 175.755ZM281.414 175.546C281.414 175.165 281.329 174.838 281.161 174.567C280.992 174.288 280.761 174.079 280.468 173.94C280.182 173.793 279.863 173.72 279.511 173.72C279.005 173.72 278.572 173.881 278.213 174.204C277.861 174.527 277.659 174.974 277.608 175.546H281.414ZM284.77 174.083C284.968 173.738 285.261 173.452 285.65 173.225C286.046 172.99 286.504 172.873 287.025 172.873C287.56 172.873 288.044 173.001 288.477 173.258C288.917 173.515 289.262 173.878 289.511 174.347C289.76 174.809 289.885 175.348 289.885 175.964C289.885 176.573 289.76 177.115 289.511 177.592C289.262 178.069 288.917 178.439 288.477 178.703C288.044 178.967 287.56 179.099 287.025 179.099C286.512 179.099 286.057 178.985 285.661 178.758C285.272 178.523 284.975 178.234 284.77 177.889V181.86H283.769V172.972H284.77V174.083ZM288.862 175.964C288.862 175.509 288.77 175.113 288.587 174.776C288.404 174.439 288.154 174.182 287.839 174.006C287.531 173.83 287.19 173.742 286.816 173.742C286.449 173.742 286.108 173.834 285.793 174.017C285.485 174.193 285.236 174.453 285.045 174.798C284.862 175.135 284.77 175.528 284.77 175.975C284.77 176.43 284.862 176.829 285.045 177.174C285.236 177.511 285.485 177.772 285.793 177.955C286.108 178.131 286.449 178.219 286.816 178.219C287.19 178.219 287.531 178.131 287.839 177.955C288.154 177.772 288.404 177.511 288.587 177.174C288.77 176.829 288.862 176.426 288.862 175.964Z" fill="#79828B"/>
<path d="M424.557 171.333V176.998C424.557 177.629 424.362 178.135 423.974 178.516C423.585 178.89 423.072 179.077 422.434 179.077C421.788 179.077 421.271 178.886 420.883 178.505C420.494 178.116 420.3 177.588 420.3 176.921H421.301C421.308 177.295 421.403 177.599 421.587 177.834C421.777 178.069 422.06 178.186 422.434 178.186C422.808 178.186 423.086 178.076 423.27 177.856C423.453 177.629 423.545 177.343 423.545 176.998V171.333H424.557ZM426.155 175.964C426.155 175.348 426.279 174.809 426.529 174.347C426.778 173.878 427.119 173.515 427.552 173.258C427.992 173.001 428.479 172.873 429.015 172.873C429.543 172.873 430.001 172.987 430.39 173.214C430.778 173.441 431.068 173.727 431.259 174.072V172.972H432.271V179H431.259V177.878C431.061 178.23 430.764 178.523 430.368 178.758C429.979 178.985 429.524 179.099 429.004 179.099C428.468 179.099 427.984 178.967 427.552 178.703C427.119 178.439 426.778 178.069 426.529 177.592C426.279 177.115 426.155 176.573 426.155 175.964ZM431.259 175.975C431.259 175.52 431.167 175.124 430.984 174.787C430.8 174.45 430.551 174.193 430.236 174.017C429.928 173.834 429.587 173.742 429.213 173.742C428.839 173.742 428.498 173.83 428.19 174.006C427.882 174.182 427.636 174.439 427.453 174.776C427.269 175.113 427.178 175.509 427.178 175.964C427.178 176.426 427.269 176.829 427.453 177.174C427.636 177.511 427.882 177.772 428.19 177.955C428.498 178.131 428.839 178.219 429.213 178.219C429.587 178.219 429.928 178.131 430.236 177.955C430.551 177.772 430.8 177.511 430.984 177.174C431.167 176.829 431.259 176.43 431.259 175.975ZM436.899 172.862C437.633 172.862 438.227 173.086 438.681 173.533C439.136 173.973 439.363 174.611 439.363 175.447V179H438.373V175.59C438.373 174.989 438.223 174.53 437.922 174.215C437.622 173.892 437.211 173.731 436.69 173.731C436.162 173.731 435.741 173.896 435.425 174.226C435.117 174.556 434.963 175.036 434.963 175.667V179H433.962V172.972H434.963V173.83C435.161 173.522 435.429 173.284 435.766 173.115C436.111 172.946 436.489 172.862 436.899 172.862Z" fill="#79828B"/>
<path d="M352.407 179H351.406L347.38 172.895V179H346.379V171.322H347.38L351.406 177.416V171.322H352.407V179ZM356.742 179.099C356.177 179.099 355.664 178.971 355.202 178.714C354.747 178.457 354.388 178.094 354.124 177.625C353.867 177.148 353.739 176.598 353.739 175.975C353.739 175.359 353.871 174.816 354.135 174.347C354.406 173.87 354.773 173.507 355.235 173.258C355.697 173.001 356.214 172.873 356.786 172.873C357.358 172.873 357.875 173.001 358.337 173.258C358.799 173.507 359.162 173.867 359.426 174.336C359.697 174.805 359.833 175.352 359.833 175.975C359.833 176.598 359.694 177.148 359.415 177.625C359.144 178.094 358.773 178.457 358.304 178.714C357.835 178.971 357.314 179.099 356.742 179.099ZM356.742 178.219C357.101 178.219 357.439 178.135 357.754 177.966C358.069 177.797 358.322 177.544 358.513 177.207C358.711 176.87 358.81 176.459 358.81 175.975C358.81 175.491 358.715 175.08 358.524 174.743C358.333 174.406 358.084 174.156 357.776 173.995C357.468 173.826 357.134 173.742 356.775 173.742C356.408 173.742 356.071 173.826 355.763 173.995C355.462 174.156 355.22 174.406 355.037 174.743C354.854 175.08 354.762 175.491 354.762 175.975C354.762 176.466 354.85 176.881 355.026 177.218C355.209 177.555 355.451 177.808 355.752 177.977C356.053 178.138 356.383 178.219 356.742 178.219ZM363.393 178.076L365.263 172.972H366.33L363.965 179H362.799L360.434 172.972H361.512L363.393 178.076Z" fill="#79828B"/>
<g filter="url(#filter0_d)">
<path fill-rule="evenodd" clip-rule="evenodd" d="M211 21.5C211 12.9396 217.94 6 226.5 6H260.5C269.06 6 276 12.9396 276 21.5C276 30.0604 269.06 37 260.5 37H226.5C217.94 37 211 30.0604 211 21.5Z" fill="white"/>
<path d="M211.55 21.5C211.55 13.2433 218.243 6.55 226.5 6.55H260.5C268.757 6.55 275.45 13.2433 275.45 21.5C275.45 29.7567 268.757 36.45 260.5 36.45H226.5C218.243 36.45 211.55 29.7567 211.55 21.5Z" stroke="#6271D2" stroke-width="1.1"/>
</g>
<path d="M231.134 25.832C231.134 26.3653 231 26.8667 230.734 27.336C230.478 27.8053 230.094 28.2 229.582 28.52C229.08 28.84 228.483 29.032 227.79 29.096V30.392H226.75V29.096C225.747 29 224.936 28.6853 224.318 28.152C223.699 27.6187 223.39 26.9147 223.39 26.04H225.342C225.374 26.456 225.507 26.8027 225.742 27.08C225.976 27.3467 226.312 27.5173 226.75 27.592V24.072C226.035 23.8907 225.454 23.7093 225.006 23.528C224.558 23.336 224.174 23.0373 223.854 22.632C223.544 22.2267 223.39 21.672 223.39 20.968C223.39 20.0827 223.699 19.352 224.318 18.776C224.936 18.1893 225.747 17.848 226.75 17.752V16.456H227.79V17.752C228.728 17.8373 229.48 18.136 230.046 18.648C230.622 19.1493 230.947 19.8427 231.022 20.728H229.07C229.038 20.3973 228.91 20.104 228.686 19.848C228.462 19.5813 228.163 19.4 227.79 19.304V22.76C228.504 22.9307 229.086 23.112 229.534 23.304C229.982 23.4853 230.36 23.7787 230.67 24.184C230.979 24.5787 231.134 25.128 231.134 25.832ZM225.246 20.872C225.246 21.3093 225.374 21.6507 225.63 21.896C225.896 22.1413 226.27 22.3387 226.75 22.488V19.256C226.291 19.3093 225.923 19.4747 225.646 19.752C225.379 20.0293 225.246 20.4027 225.246 20.872ZM227.79 27.592C228.259 27.5173 228.627 27.3307 228.894 27.032C229.16 26.7227 229.294 26.3547 229.294 25.928C229.294 25.5013 229.16 25.1707 228.894 24.936C228.638 24.6907 228.27 24.4933 227.79 24.344V27.592ZM235.471 26.52C236.495 25.6347 237.3 24.9093 237.887 24.344C238.484 23.768 238.98 23.1707 239.375 22.552C239.769 21.9333 239.967 21.3147 239.967 20.696C239.967 20.056 239.812 19.5547 239.503 19.192C239.204 18.8293 238.729 18.648 238.079 18.648C237.449 18.648 236.959 18.8507 236.607 19.256C236.265 19.6507 236.084 20.184 236.063 20.856H234.303C234.335 19.64 234.697 18.712 235.391 18.072C236.095 17.4213 236.985 17.096 238.063 17.096C239.225 17.096 240.132 17.416 240.783 18.056C241.444 18.696 241.775 19.5493 241.775 20.616C241.775 21.384 241.577 22.1253 241.183 22.84C240.799 23.544 240.335 24.1787 239.791 24.744C239.257 25.2987 238.575 25.944 237.743 26.68L237.023 27.32H242.095V28.84H234.319V27.512L235.471 26.52ZM245.372 26.52C246.396 25.6347 247.201 24.9093 247.788 24.344C248.385 23.768 248.881 23.1707 249.276 22.552C249.67 21.9333 249.868 21.3147 249.868 20.696C249.868 20.056 249.713 19.5547 249.404 19.192C249.105 18.8293 248.63 18.648 247.98 18.648C247.35 18.648 246.86 18.8507 246.508 19.256C246.166 19.6507 245.985 20.184 245.964 20.856H244.204C244.236 19.64 244.598 18.712 245.292 18.072C245.996 17.4213 246.886 17.096 247.964 17.096C249.126 17.096 250.033 17.416 250.684 18.056C251.345 18.696 251.676 19.5493 251.676 20.616C251.676 21.384 251.478 22.1253 251.084 22.84C250.7 23.544 250.236 24.1787 249.692 24.744C249.158 25.2987 248.476 25.944 247.644 26.68L246.924 27.32H251.996V28.84H244.22V27.512L245.372 26.52ZM260.537 20.04C260.419 19.5493 260.206 19.1813 259.897 18.936C259.587 18.6907 259.155 18.568 258.601 18.568C257.758 18.568 257.129 18.8933 256.713 19.544C256.297 20.184 256.078 21.2507 256.057 22.744C256.334 22.2747 256.739 21.912 257.273 21.656C257.806 21.4 258.382 21.272 259.001 21.272C259.705 21.272 260.323 21.4267 260.857 21.736C261.401 22.0347 261.822 22.472 262.121 23.048C262.43 23.624 262.585 24.312 262.585 25.112C262.585 25.8587 262.435 26.5253 262.137 27.112C261.849 27.6987 261.417 28.1627 260.841 28.504C260.265 28.8347 259.571 29 258.761 29C257.662 29 256.798 28.76 256.169 28.28C255.55 27.7893 255.113 27.1013 254.857 26.216C254.611 25.3307 254.489 24.2267 254.489 22.904C254.489 19 255.865 17.048 258.617 17.048C259.683 17.048 260.521 17.336 261.129 17.912C261.747 18.488 262.11 19.1973 262.217 20.04H260.537ZM258.601 22.808C257.95 22.808 257.395 23.0053 256.937 23.4C256.489 23.784 256.265 24.344 256.265 25.08C256.265 25.816 256.473 26.4027 256.889 26.84C257.315 27.2667 257.907 27.48 258.665 27.48C259.337 27.48 259.865 27.272 260.249 26.856C260.643 26.44 260.841 25.8853 260.841 25.192C260.841 24.4667 260.649 23.8907 260.265 23.464C259.891 23.0267 259.337 22.808 258.601 22.808Z" fill="#42505C"/>
</g>
<defs>
<filter id="filter0_d" x="208" y="4" width="71" height="37" filterUnits="userSpaceOnUse" color-interpolation-filters="sRGB">
<feFlood flood-opacity="0" result="BackgroundImageFix"/>
<feColorMatrix in="SourceAlpha" type="matrix" values="0 0 0 0 0 0 0 0 0 0 0 0 0 0 0 0 0 0 127 0" result="hardAlpha"/>
<feOffset dy="1"/>
<feGaussianBlur stdDeviation="1.5"/>
<feColorMatrix type="matrix" values="0 0 0 0 0 0 0 0 0 0 0 0 0 0 0 0 0 0 0.15 0"/>
<feBlend mode="normal" in2="BackgroundImageFix" result="effect1_dropShadow"/>
<feBlend mode="normal" in="SourceGraphic" in2="effect1_dropShadow" result="shape"/>
</filter>
<linearGradient id="paint0_linear" x1="469" y1="159" x2="469" y2="40" gradientUnits="userSpaceOnUse">
<stop stop-color="white" stop-opacity="0.01"/>
<stop offset="1" stop-color="#6270D1"/>
</linearGradient>
<clipPath id="clip0">
<rect width="483" height="183" fill="white"/>
</clipPath>
</defs>
</svg>
